<svg id="Layer_1" data-name="Layer 1" xmlns="http://www.w3.org/2000/svg" viewBox="0 0 64 64"><defs><style>.cls-1{fill:#646e78;}.cls-2{fill:#f47e3e;}</style></defs><rect class="cls-1" x="1.96" y="23.77" width="6.66" height="27.03"/><path class="cls-2" d="M51.63,18.61c-4-3.78-8.59-5-14-5-6.63,0-10.3,2.05-10.3,5.6s3.32,5.72,10.53,6.18C48.54,26.05,62,28.43,62,45.22L45,62c-17.14,0-25-1.48-33.29-10.07L18.55,42c4,4.46,13.16,7.78,19.46,7.89,5.26.12,10.18-2.63,10.18-6.75,0-3.89-3.2-5.49-11.21-6-10.65-.8-23.35-4.69-23.35-17.51C13.63,6.59,27.13,2,37.43,2c8.82,0,15.45,1.71,22,7.44Z"/><rect class="cls-1" x="2.21" y="13.21" width="6.16" height="6.16"/></svg>