<?xml version="1.0" encoding="utf-8"?>
<!-- Generator: Adobe Illustrator 26.0.1, SVG Export Plug-In . SVG Version: 6.00 Build 0)  -->
<svg version="1.1" id="Layer_1" xmlns="http://www.w3.org/2000/svg" xmlns:xlink="http://www.w3.org/1999/xlink" x="0px" y="0px"
	 viewBox="0 0 1080 483.1" style="enable-background:new 0 0 1080 483.1;" xml:space="preserve">
<style type="text/css">
	.st0{fill:#F47E3E;}
	.st1{fill:#646E78;}
</style>
<g>
	<g>
		<rect x="35.7" y="113.9" class="st0" width="47.6" height="193"/>
		<path class="st0" d="M251.8,165.8c-13.6-12.9-29.2-17.2-47.6-17.2c-22.6,0-35.1,7-35.1,19.1c0,12.5,11.3,19.5,35.9,21.1
			c36.3,2.3,82.3,10.4,82.3,67.7l-58.2,57.1c-58.4,0-85.3-5.1-113.4-34.3l23.4-33.9c13.6,15.2,44.8,26.5,66.3,26.9
			c17.9,0.4,34.7-9,34.7-23c0-13.3-10.9-18.7-38.2-20.3c-36.3-2.7-79.6-16-79.6-59.7c0-44.5,46-60.1,81.1-60.1
			c30,0,52.6,5.8,74.9,25.3L251.8,165.8z"/>
		<path class="st0" d="M508.8,211c0,55.4-37.8,100.2-100.2,100.2s-99.8-44.8-99.8-100.2c0-55,40.1-100.2,104.8-100.2L508.8,211z
			 M356.3,211c0,29.2,17.5,56.5,52.3,56.5s52.3-27.3,52.3-56.5l-56.3-56.9C376.9,154.1,356.3,182.2,356.3,211z"/>
		<path class="st0" d="M588.7,34.4V146v161h-47.2V34.4H588.7z"/>
		<path class="st0" d="M829.7,114.3l-81.9,193.4h-51.5L614,114.3h51.9c0,0,38.5,144.7,56.2,144.7c18.7,0,55.8-144.7,55.8-144.7
			H829.7z"/>
		<path class="st0" d="M904.6,227.8l46,40.9c17.5,0,40.6-6.6,51.5-17.9l30.4,30c-20.3,21.1-53.4,31.2-82.7,31.2
			c0,0-105.7-101.6-105.7-102.6c0-58.5,39.8-100.6,102.2-100.6c64.3,0,104.5,39.8,97.1,118.9H904.6z M997.8,188.4
			c-3.1-25-22.6-37.4-49.9-37.4c-25.7,0-46.8,12.5-53.8,37.4H997.8z"/>
	</g>
	<g>
		<g>
			<path class="st1" d="M297.8,435.1c-9.9,9.8-20.4,13.6-33.1,13.6c-24.9,0-45.7-15-45.7-45.5c0-30.5,20.7-45.5,45.7-45.5
				c12.2,0,21.6,3.5,31,12.7l-13.4,14.1c-5.1-4.5-11.3-6.8-17.3-6.8c-14.3,0-24.8,10.5-24.8,25.5c0,16.4,11.2,25.1,24.4,25.1
				c6.8,0,13.6-1.9,18.8-7.1L297.8,435.1z"/>
			<path class="st1" d="M394.4,403.3c0,24.8-16.9,44.8-44.8,44.8c-27.9,0-44.6-20-44.6-44.8c0-24.6,17.1-44.8,44.4-44.8
				C376.8,358.5,394.4,378.7,394.4,403.3z M326.2,403.3c0,13.1,7.8,25.3,23.4,25.3c15.5,0,23.4-12.2,23.4-25.3
				c0-12.9-9.1-25.5-23.4-25.5C334.3,377.8,326.2,390.4,326.2,403.3z"/>
			<path class="st1" d="M472.3,446.1v-45c0-13.1-7.1-23-20.7-23c-13.1,0-22,11-22,24.1v43.9h-21.1v-43.7c0-45.9,42.5-43.7,42.5-43.7
				c20.2,0,42.5,15.2,42.5,42.2v45.1H472.3z"/>
			<path class="st1" d="M575.2,446.1v-45c0-13.1-7.1-23-20.7-23c-13.1,0-22,11-22,24.1v43.9h-21.1v-43.7c0-45.9,42.5-43.7,42.5-43.7
				c20.2,0,42.5,15.2,42.5,42.2v45.1H575.2z"/>
			<path class="st1" d="M632.9,410.7c1.4,10.6,10.6,18.3,25.6,18.3c7.8,0,18.1-3,23-8l13.6,13.4c-9.1,9.4-23.9,13.9-37,13.9
				c-29.6,0-47.2-18.3-47.2-45.8c0-26.1,17.8-45,45.7-45c28.8,0,46.7,17.8,43.4,53.2H632.9z M679.6,393.1
				c-1.4-11.2-10.1-16.7-22.3-16.7c-11.5,0-20.9,5.6-24.1,16.7H679.6z"/>
			<path class="st1" d="M790.1,435.1c-9.9,9.8-20.4,13.6-33.1,13.6c-24.9,0-45.7-15-45.7-45.5c0-30.5,20.7-45.5,45.7-45.5
				c12.2,0,21.6,3.5,31,12.7l-13.4,14.1c-5.1-4.5-11.3-6.8-17.3-6.8c-14.3,0-24.8,10.5-24.8,25.5c0,16.4,11.2,25.1,24.4,25.1
				c6.8,0,13.6-1.9,18.8-7.1L790.1,435.1z"/>
			<path class="st1" d="M829.5,336v24.4h23.7v18.3h-23.9v37.1c0,8.2,4.5,12.2,11.2,12.2c3.3,0,7.1-1,10.3-2.6l5.9,18.1
				c-6.1,2.4-11.2,3.5-17.6,3.7c-18.7,0.7-30.9-9.9-30.9-31.4v-37.1h-16v-18.3h16v-22.1L829.5,336z"/>
		</g>
	</g>
	<rect x="37.5" y="38.5" class="st0" width="44" height="44"/>
</g>
</svg>
